<svg xmlns="http://www.w3.org/2000/svg"  xmlns:xlink="http://www.w3.org/1999/xlink"  width="18px" height="18px" fill="#757575" viewBox="0 0 25 32"><path d="M23.92 8.64L3.84 5.76 1.2 4.08Q.88 3.92.6 4t-.48.36-.12.6.4.48l2.56 1.6 4.48 11.2-1.6 4q-.16.4.08.76t.64.36h16.48q.32 0 .56-.24t.24-.56-.24-.56-.56-.24H7.68l1.12-2.72h14.32q.32 0 .56-.2t.24-.52l.64-8.8q.08-.32-.12-.56t-.52-.32zM22 23.6q-.88 0-1.56.64t-.68 1.56.68 1.56T22 28t1.56-.64.68-1.56-.68-1.56T22 23.6zm-12.32 0q-.96 0-1.6.64t-.64 1.56.64 1.56 1.56.64 1.56-.64.64-1.56-.64-1.56-1.52-.64z"></path></svg>